<svg
  xmlns="http://www.w3.org/2000/svg"
  width="1600"
  height="1000"
  viewBox="0 0 1600 1000"
  fill="none"
>
  <defs>
    <linearGradient id="lineGradient" x1="0" y1="0" x2="1600" y2="1000">
      <stop stop-color="#2563EB" stop-opacity="0.55" />
      <stop offset="0.5" stop-color="#0F4C81" stop-opacity="0.42" />
      <stop offset="1" stop-color="#14B8A6" stop-opacity="0.48" />
    </linearGradient>

    <radialGradient id="fadeCenter" cx="0" cy="0" r="1">
      <stop stop-color="white" stop-opacity="0" />
      <stop offset="0.65" stop-color="white" stop-opacity="0.1" />
      <stop offset="1" stop-color="white" stop-opacity="0.75" />
    </radialGradient>

    <filter id="blur">
      <feGaussianBlur stdDeviation="0.4" />
    </filter>
  </defs>

  <g
    stroke="url(#lineGradient)"
    stroke-width="2"
    filter="url(#blur)"
  >
    <!-- Góc trái -->
    <path d="M0 110L35 50L105 50L140 110L105 170L35 170Z" />
    <path d="M105 170L140 110L210 110L245 170L210 230L140 230Z" />
    <path d="M0 230L35 170L105 170L140 230L105 290L35 290Z" />
    <path d="M140 350L175 290L245 290L280 350L245 410L175 410Z" />

    <!-- Góc phải -->
    <path d="M1320 70L1355 10L1425 10L1460 70L1425 130L1355 130Z" />
    <path d="M1425 130L1460 70L1530 70L1565 130L1530 190L1460 190Z" />
    <path d="M1250 190L1285 130L1355 130L1390 190L1355 250L1285 250Z" />
    <path d="M1390 310L1425 250L1495 250L1530 310L1495 370L1425 370Z" />

    <!-- Góc dưới trái -->
    <path d="M20 770L55 710L125 710L160 770L125 830L55 830Z" />
    <path d="M125 830L160 770L230 770L265 830L230 890L160 890Z" />

    <!-- Góc dưới phải -->
    <path d="M1335 760L1370 700L1440 700L1475 760L1440 820L1370 820Z" />
    <path d="M1440 820L1475 760L1545 760L1580 820L1545 880L1475 880Z" />

    <!-- Đường nối -->
    <path d="M140 110L245 170" />
    <path d="M105 290L175 350" />
    <path d="M1320 70L1250 190" />
    <path d="M1390 190L1425 310" />
    <path d="M160 770L265 830" />
    <path d="M1335 760L1475 820" />
  </g>

  <g fill="#60A5FA" fill-opacity="0.75">
    <circle cx="35" cy="50" r="4" />
    <circle cx="140" cy="110" r="4" />
    <circle cx="245" cy="170" r="4" />
    <circle cx="105" cy="290" r="4" />
    <circle cx="175" cy="350" r="4" />

    <circle cx="1355" cy="10" r="4" />
    <circle cx="1460" cy="70" r="4" />
    <circle cx="1390" cy="190" r="4" />
    <circle cx="1425" cy="310" r="4" />

    <circle cx="55" cy="710" r="4" />
    <circle cx="160" cy="770" r="4" />
    <circle cx="230" cy="890" r="4" />

    <circle cx="1370" cy="700" r="4" />
    <circle cx="1475" cy="760" r="4" />
    <circle cx="1545" cy="880" r="4" />
  </g>

  <!-- <rect width="1600" height="1000" fill="url(#fadeCenter)" /> -->
</svg>